M48
; DRILL file {KiCad 9.0.6} date 2026-01-19T17:07:03+0100
; FORMAT={-:-/ absolute / metric / decimal}
; #@! TF.CreationDate,2026-01-19T17:07:03+01:00
; #@! TF.GenerationSoftware,Kicad,Pcbnew,9.0.6
; #@! TF.FileFunction,Plated,1,2,PTH
FMAT,2
METRIC
; #@! TA.AperFunction,Plated,PTH,ViaDrill
T1C0.400
; #@! TA.AperFunction,Plated,PTH,ComponentDrill
T2C0.800
; #@! TA.AperFunction,Plated,PTH,ComponentDrill
T3C0.900
; #@! TA.AperFunction,Plated,PTH,ComponentDrill
T4C1.000
; #@! TA.AperFunction,Plated,PTH,ComponentDrill
T5C1.040
; #@! TA.AperFunction,Plated,PTH,ComponentDrill
T6C1.100
; #@! TA.AperFunction,Plated,PTH,ComponentDrill
T7C1.200
%
G90
G05
T1
X56.57Y-62.81
X66.421Y-136.906
X97.79Y-55.245
X98.425Y-64.77
X108.712Y-108.839
X114.935Y-106.045
X117.475Y-121.92
X118.618Y-119.38
X121.285Y-66.675
X122.555Y-116.84
T2
X55.245Y-64.135
X55.245Y-86.995
X55.245Y-90.805
X55.245Y-113.665
X55.245Y-117.475
X55.245Y-140.335
X57.785Y-64.135
X57.785Y-86.995
X57.785Y-90.805
X57.785Y-113.665
X57.785Y-117.475
X57.785Y-140.335
X60.325Y-64.135
X60.325Y-73.025
X60.325Y-80.01
X60.325Y-86.995
X60.325Y-90.805
X60.325Y-113.665
X60.325Y-117.475
X60.325Y-140.335
X62.865Y-64.135
X62.865Y-86.995
X62.865Y-90.805
X62.865Y-113.665
X62.865Y-117.475
X62.865Y-140.335
X65.405Y-64.135
X65.405Y-86.995
X65.405Y-90.805
X65.405Y-113.665
X65.405Y-117.475
X65.405Y-140.335
X67.945Y-64.135
X67.945Y-86.995
X67.945Y-90.805
X67.945Y-113.665
X67.945Y-117.475
X67.945Y-140.335
X70.485Y-64.135
X70.485Y-73.025
X70.485Y-80.01
X70.485Y-86.995
X70.485Y-90.805
X70.485Y-113.665
X70.485Y-117.475
X70.485Y-140.335
X73.025Y-64.135
X73.025Y-86.995
X73.025Y-90.805
X73.025Y-113.665
X73.025Y-117.475
X73.025Y-140.335
X82.42Y-66.0
X82.42Y-70.5
X82.42Y-83.185
X82.42Y-87.63
X82.42Y-92.075
X82.42Y-106.045
X82.42Y-110.5
X82.42Y-115.0
X82.42Y-119.38
X82.55Y-96.52
X92.58Y-66.0
X92.58Y-70.5
X92.58Y-83.185
X92.58Y-87.63
X92.58Y-92.075
X92.58Y-106.045
X92.58Y-110.5
X92.58Y-115.0
X92.58Y-119.38
X92.71Y-96.52
X93.5Y-76.855
X93.5Y-79.355
X93.5Y-99.715
X93.5Y-102.215
X97.81Y-87.5
X97.81Y-92.71
X97.81Y-107.95
X98.0Y-72.5
X98.435Y-75.68
X98.435Y-83.3
X98.435Y-95.875
X98.435Y-103.495
X100.31Y-87.5
X100.31Y-92.71
X100.31Y-107.95
X100.5Y-72.5
X100.975Y-75.68
X100.975Y-83.3
X100.975Y-95.875
X100.975Y-103.495
X103.515Y-75.68
X103.515Y-83.3
X103.515Y-95.875
X103.515Y-103.495
X103.525Y-72.5
X103.525Y-87.5
X103.525Y-92.71
X103.525Y-107.95
X106.025Y-72.5
X106.025Y-87.5
X106.025Y-92.71
X106.025Y-107.95
X106.055Y-75.68
X106.055Y-83.3
X106.055Y-95.875
X106.055Y-103.495
X110.42Y-118.0
X110.42Y-122.5
X110.42Y-127.5
X110.42Y-132.0
X110.42Y-136.5
X110.49Y-71.12
X110.49Y-76.2
X110.49Y-81.28
X110.49Y-86.36
X110.49Y-91.44
X110.49Y-96.52
X110.49Y-100.965
X110.49Y-106.045
X120.58Y-118.0
X120.58Y-122.5
X120.58Y-127.5
X120.58Y-132.0
X120.58Y-136.5
X120.65Y-71.12
X120.65Y-76.2
X120.65Y-81.28
X120.65Y-86.36
X120.65Y-91.44
X120.65Y-96.52
X120.65Y-100.965
X120.65Y-106.045
X124.46Y-89.93
X124.46Y-92.47
X124.46Y-95.01
X124.46Y-97.55
X124.46Y-100.09
X124.46Y-102.63
X124.46Y-105.17
X124.46Y-107.71
X130.81Y-72.39
X130.92Y-67.31
X140.97Y-72.39
X141.08Y-67.31
X147.32Y-89.93
X147.32Y-92.47
X147.32Y-95.01
X147.32Y-97.55
X147.32Y-100.09
X147.32Y-102.63
X147.32Y-105.17
X147.32Y-107.71
T3
X75.23Y-57.0
X77.77Y-57.0
X96.23Y-57.0
X97.18Y-143.55
X97.18Y-146.09
X98.77Y-57.0
X101.68Y-143.51
X101.68Y-146.05
X106.68Y-143.51
X106.68Y-146.05
X111.18Y-143.55
X111.18Y-146.09
X115.68Y-143.55
X115.68Y-146.09
T4
X82.5Y-74.5
X82.5Y-101.5
X82.5Y-128.5
X104.18Y-57.15
X106.72Y-57.15
X109.26Y-57.15
X111.8Y-57.15
X130.175Y-145.415
X132.715Y-145.415
X135.255Y-145.415
X137.795Y-145.415
X140.335Y-145.415
X141.605Y-85.085
X141.605Y-87.625
X141.605Y-90.165
X141.605Y-92.705
X141.605Y-95.245
X141.605Y-97.785
X141.605Y-100.325
X141.605Y-102.865
X141.605Y-105.405
X141.605Y-107.945
X142.24Y-62.5
X144.78Y-62.5
T5
X102.16Y-114.1
X102.16Y-139.5
X104.7Y-114.1
X104.7Y-139.5
X107.24Y-114.1
X107.24Y-139.5
X109.78Y-114.1
X109.78Y-139.5
X112.32Y-114.1
X112.32Y-139.5
X114.86Y-114.1
X114.86Y-139.5
X117.4Y-114.1
X117.4Y-139.5
X119.94Y-114.1
X119.94Y-139.5
X122.48Y-114.1
X122.48Y-139.5
X125.02Y-114.1
X125.02Y-139.5
X127.56Y-114.1
X127.56Y-139.5
X130.1Y-114.1
X130.1Y-139.5
X132.64Y-114.1
X132.64Y-139.5
X135.18Y-114.1
X135.18Y-139.5
X137.72Y-114.1
X137.72Y-139.5
X140.26Y-114.1
X140.26Y-139.5
X142.8Y-114.1
X142.8Y-139.5
X145.34Y-114.1
X145.34Y-139.5
X147.88Y-114.1
X147.88Y-139.5
T6
X95.885Y-62.5
X95.885Y-67.31
X106.045Y-62.5
X106.045Y-67.31
T7
X60.96Y-57.15
X63.5Y-57.15
X66.04Y-57.15
X68.58Y-57.15
X71.12Y-57.15
X81.96Y-57.15
X84.5Y-57.15
X90.46Y-57.15
X93.0Y-57.15
X121.965Y-57.15
X124.505Y-57.15
X127.045Y-57.15
X134.625Y-57.3
X137.165Y-57.3
M30
